<!-- Created with Inkscape (http://www.inkscape.org/) -->
<svg xmlns:rdf="http://www.w3.org/1999/02/22-rdf-syntax-ns#" xmlns="http://www.w3.org/2000/svg" version="1.1" xmlns:cc="http://creativecommons.org/ns#" xmlns:dc="http://purl.org/dc/elements/1.1/" viewBox="0 0 428.1 387.68">
 <metadata>
  <rdf:RDF>
   <cc:Work rdf:about="">
    <dc:format>image/svg+xml</dc:format>
    <dc:type rdf:resource="http://purl.org/dc/dcmitype/StillImage"/>
    <dc:title/>
   </cc:Work>
  </rdf:RDF>
 </metadata>
 <g transform="translate(136.75972,168.81136)">
  <path stroke-linejoin="miter" d="M57.143,42.093c9.096,8.166-6.519,16.291-13.572,15.119-19.112-3.174-23.452-27.201-16.666-42.262,12.139-26.94,47.166-31.909,70.952-18.214,34.903,20.098,40.603,67.397,19.763,99.643-27.773,42.981-87.721,49.381-128.33,21.311-51.108-35.333-58.224-108.09-22.857-157.02,42.834-59.27,128.48-67.095,185.71-24.405,67.45,50.305,75.977,148.89,25.952,214.4-57.755,75.644-169.3,84.875-243.1,27.5-83.846-65.193-93.782-189.73-29.048-271.79,72.622-92.055,210.16-102.69,300.48-30.595,100.27,80.043,111.61,230.59,32.143,329.17" transform="translate(-0.05797764,3.126158)" stroke="#000" stroke-linecap="butt" stroke-width="1px" fill="none"/>
 </g>
</svg>
