<svg xmlns="http://www.w3.org/2000/svg" xmlns:xlink="http://www.w3.org/1999/xlink" version="1.1" x="0px" y="0px" viewBox="0 0 450 250" enable-background="new 0 0 450 250" xml:space="preserve" class="svg ufo-building">
  <g class="ufo-building-float">
    <g class="ufo-big">
      <path class="ufo-big-body" d="M143.1 108.7l-1.3-0.7c-8.5-4.8-16-9-26.3-11.6c0 0 0-0.1 0-0.1c0-7.7-3-14-8.7-18.2 c-4.9-3.6-11.7-5.6-19.5-5.8v-4.7c1.4-0.5 2.4-1.8 2.4-3.3c0-1.9-1.6-3.5-3.5-3.5c-1.9 0-3.5 1.6-3.5 3.5c0 1.5 0.9 2.8 2.3 3.3 v4.7c-7.8 0.2-14.5 2.2-19.4 5.8c-5.7 4.2-8.7 10.5-8.7 18.2c0 0.1 0 0.2 0 0.3c-4.2 1.1-8.3 2.5-12.4 4.3c-5.1 2.2-9.9 4.8-13.9 7 l-1.3 0.7l2.4 2.6h31.5c4.9 5.4 12.6 8.1 23 8.1c10.4 0 18.1-2.7 23-8.1h31.5L143.1 108.7z M86.1 63.2c0.6 0 1.2 0.5 1.2 1.2 c0 0.6-0.5 1.2-1.2 1.2c-0.6 0-1.2-0.5-1.2-1.2C84.9 63.8 85.5 63.2 86.1 63.2z M61.1 86.7c1.3-2.6 3.2-4.9 5.7-6.7 c4.8-3.5 11.4-5.3 19.3-5.3c7.9 0 14.5 1.8 19.3 5.3c2.5 1.8 4.4 4.1 5.7 6.7c1.3 2.7 2.1 5.8 2.1 9.3H59.4H59 C59.1 92.5 59.8 89.4 61.1 86.7z M100.6 114.6c-3.9 1.7-8.8 2.6-14.5 2.6c-5.8 0-10.6-0.9-14.5-2.6c-2-0.9-3.7-1.9-5.2-3.2h39.5 C104.3 112.7 102.6 113.8 100.6 114.6z M33.3 109.1c12-6.6 19.1-9.1 26.4-10.8h53.7c10.1 2.4 17.1 6.1 25.5 10.8H33.3z"/>
      <g class="ufo-big-lights">
        <path class="ufo-big-lights-light ufo-big-lights-light--1" d="M64.7 94.4c1.9 0 3.5-1.6 3.5-3.5c0-1.9-1.6-3.5-3.5-3.5s-3.5 1.6-3.5 3.5C61.2 92.8 62.8 94.4 64.7 94.4z M64.7 89.7c0.6 0 1.2 0.5 1.2 1.2c0 0.6-0.5 1.2-1.2 1.2c-0.6 0-1.2-0.5-1.2-1.2C63.6 90.3 64.1 89.7 64.7 89.7z"/>
        <path class="ufo-big-lights-light ufo-big-lights-light--2" d="M75.4 94.4c1.9 0 3.5-1.6 3.5-3.5c0-1.9-1.6-3.5-3.5-3.5c-1.9 0-3.5 1.6-3.5 3.5 C71.9 92.8 73.5 94.4 75.4 94.4z M75.4 89.7c0.6 0 1.2 0.5 1.2 1.2c0 0.6-0.5 1.2-1.2 1.2c-0.6 0-1.2-0.5-1.2-1.2 C74.2 90.3 74.8 89.7 75.4 89.7z"/>
        <path class="ufo-big-lights-light ufo-big-lights-light--3" d="M86.1 94.4c1.9 0 3.5-1.6 3.5-3.5c0-1.9-1.6-3.5-3.5-3.5c-1.9 0-3.5 1.6-3.5 3.5 C82.6 92.8 84.2 94.4 86.1 94.4z M86.1 89.7c0.6 0 1.2 0.5 1.2 1.2c0 0.6-0.5 1.2-1.2 1.2c-0.6 0-1.2-0.5-1.2-1.2 C84.9 90.3 85.5 89.7 86.1 89.7z"/>
        <path class="ufo-big-lights-light ufo-big-lights-light--4" d="M96.8 94.4c1.9 0 3.5-1.6 3.5-3.5c0-1.9-1.6-3.5-3.5-3.5c-1.9 0-3.5 1.6-3.5 3.5 C93.3 92.8 94.9 94.4 96.8 94.4z M96.8 89.7c0.6 0 1.2 0.5 1.2 1.2c0 0.6-0.5 1.2-1.2 1.2c-0.6 0-1.2-0.5-1.2-1.2 C95.6 90.3 96.1 89.7 96.8 89.7z"/>
        <path class="ufo-big-lights-light ufo-big-lights-light--5" d="M107.5 94.4c1.9 0 3.5-1.6 3.5-3.5c0-1.9-1.6-3.5-3.5-3.5c-1.9 0-3.5 1.6-3.5 3.5 C104 92.8 105.6 94.4 107.5 94.4z M107.5 89.7c0.6 0 1.2 0.5 1.2 1.2c0 0.6-0.5 1.2-1.2 1.2c-0.6 0-1.2-0.5-1.2-1.2 C106.3 90.3 106.8 89.7 107.5 89.7z"/>
      </g>
    </g>
  </g>
</svg>